/* XPM */
static char *e5bb0ffdbbff49acec5a1797f2999b33Vxnss5Tpyr9ZevzF[] = {
/* columns rows colors chars-per-pixel */
"32 32 236 2 ",
"   c None",
".  c #060404",
"X  c #040406",
"o  c #090505",
"O  c #090507",
"+  c #080606",
"@  c #080707",
"#  c #0A0606",
"$  c #0C0709",
"%  c #0E090B",
"&  c #150B0C",
"*  c #160C0E",
"=  c #180D0E",
"-  c #170D10",
";  c #1A0F11",
":  c #1C0F11",
">  c #1F0E10",
",  c #1E0E12",
"<  c #1E1013",
"1  c #1F1114",
"2  c #201113",
"3  c #211113",
"4  c #201214",
"5  c #231215",
"6  c #241214",
"7  c #241215",
"8  c #261315",
"9  c #291517",
"0  c #291619",
"q  c #2D171A",
"w  c #32181A",
"e  c #321A1B",
"r  c #34191C",
"t  c #351B1D",
"y  c #361B1C",
"u  c #351B1E",
"i  c #391C1D",
"p  c #3F1E22",
"a  c #401F21",
"s  c #432024",
"d  c #432125",
"f  c #472226",
"g  c #4E2629",
"h  c #4D272A",
"j  c #4F282B",
"k  c #4F282C",
"l  c #51262B",
"z  c #582A2E",
"x  c #582B2E",
"c  c #5D2C30",
"v  c #5F2D32",
"b  c #5E2E32",
"n  c #602D32",
"m  c #652F34",
"M  c #683136",
"N  c #693237",
"B  c #6C3439",
"V  c #6F383B",
"C  c #6F383C",
"Z  c #70363B",
"A  c #73373B",
"S  c #75373C",
"D  c #7A3B3F",
"F  c #793B40",
"G  c #7E3C42",
"H  c #7E3E42",
"J  c #7E4044",
"K  c #893F46",
"L  c #804044",
"P  c #8B4147",
"I  c #864448",
"U  c #8B454A",
"Y  c #95454C",
"T  c #96464C",
"R  c #96464D",
"E  c #97464D",
"W  c #90484D",
"Q  c #97484E",
"!  c #994F52",
"~  c #A34F54",
"^  c #A55357",
"/  c #A95056",
"(  c #A85557",
")  c #A45559",
"_  c #A55559",
"`  c #AE5259",
"'  c #AE545A",
"]  c #AE555D",
"[  c #AF565C",
"{  c #AA5859",
"}  c #AA595C",
"|  c #AD585C",
" . c #AF585F",
".. c #B25F5F",
"X. c #AF5A61",
"o. c #BE5960",
"O. c #BD5D62",
"+. c #BE5C63",
"@. c #B66163",
"#. c #B76164",
"$. c #BE6165",
"%. c #C35A62",
"&. c #C35B63",
"*. c #CC5F67",
"=. c #C5676A",
"-. c #CB6168",
";. c #CB656B",
":. c #C9666A",
">. c #CC636C",
",. c #CC676C",
"<. c #D5646C",
"1. c #DD666E",
"2. c #CA6B70",
"3. c #CC6B73",
"4. c #CF6C70",
"5. c #CF6E70",
"6. c #DE6B71",
"7. c #CD7171",
"8. c #CD747A",
"9. c #CD747B",
"0. c #D07072",
"q. c #D37172",
"w. c #D27374",
"e. c #D27676",
"r. c #D57677",
"t. c #D27678",
"y. c #DF757D",
"u. c #D77B7A",
"i. c #D97879",
"p. c #E16B72",
"a. c #E66F75",
"s. c #E27277",
"d. c #E7757A",
"f. c #E7767A",
"g. c #E7767B",
"h. c #E2747C",
"j. c #E9777B",
"k. c #E17C7D",
"l. c #E37F7F",
"z. c #EB787D",
"x. c #EC7B7E",
"c. c #E77B83",
"v. c #E77C80",
"b. c #E78181",
"n. c #E48584",
"m. c #E78785",
"M. c #EA8182",
"N. c #ED8283",
"B. c #EE8283",
"V. c #EA8484",
"C. c #EB8585",
"Z. c #EC8585",
"A. c #EE8585",
"S. c #EE8686",
"D. c #EF8786",
"F. c #E68885",
"G. c #E78986",
"H. c #E88A87",
"J. c #ED8886",
"K. c #E9858A",
"L. c #EA8B88",
"P. c #EB8C88",
"I. c #E88F8C",
"U. c #F08C89",
"Y. c #F08D8A",
"T. c #F08E8B",
"R. c #F18F8B",
"E. c #EF938E",
"W. c #F0918C",
"Q. c #F0918D",
"!. c #F1928E",
"~. c #F2928E",
"^. c #F1948F",
"/. c #F2948F",
"(. c #E98B91",
"). c #EA8C93",
"_. c #EB8D93",
"`. c #EA8D95",
"'. c #EE9292",
"]. c #EE9198",
"[. c #F09690",
"{. c #F19790",
"}. c #F29690",
"|. c #F39690",
" X c #F39790",
".X c #F29791",
"XX c #F39791",
"oX c #F39891",
"OX c #F39892",
"+X c #F39992",
"@X c #F39B93",
"#X c #F49A93",
"$X c #F49B93",
"%X c #F49B94",
"&X c #F39C96",
"*X c #F49C94",
"=X c #F49D95",
"-X c #F49E96",
";X c #F59E96",
":X c #F59F96",
">X c #F59F97",
",X c #F29B9A",
"<X c #F5A097",
"1X c #F5A198",
"2X c #F5A39A",
"3X c #F5A39B",
"4X c #EF9AA0",
"5X c #F6A9A1",
"6X c #F6AAA2",
"7X c #F4A8A4",
"8X c #F6ACA4",
"9X c #F6ADA5",
"0X c #F5ACA6",
"qX c #F2A7A9",
"wX c #F2A7AC",
"eX c #F7B0A8",
"rX c #F7B1AA",
"tX c #F3AEB2",
"yX c #F5B3B4",
"uX c #F4B2B5",
"iX c #F8BCB6",
"pX c #F8C0BA",
"aX c #F7C2C2",
"sX c #F6C3C6",
"dX c #F7C7C7",
"fX c #F8C3C1",
"gX c #F9C7C4",
"hX c #F9C8C4",
"jX c #F9C9C4",
"kX c #F6C7CB",
"lX c #F7CACE",
"zX c #FACECA",
"xX c #FACFCB",
"cX c #FADAD9",
"vX c #FBDFDF",
"bX c #FBE2E2",
/* pixels */
"                                                                ",
"                                                                ",
"                                                                ",
"            # # # # #                         . @ # # @         ",
"          * 1 1 4 4 4 -                     ; 1 4 4 4 1 =       ",
"        8 c G P P P K M i #             # i m P P P P G c 8     ",
"      w z Y +.3.9.9.2._ V r ,         , u V ^ :.,.;.-.o.Y z w   ",
"  # r m Y &.h.].wXqX'.t.} D f 3 # . 4 f D } w.Z.Z.B.z.p.&.Y m r ",
"  % l Y >.h.`.tXkXpX6XE.i.$.L h 0 0 h L $.i.L.OXOX~.D.j.6.-.E l ",
". % c ] c.4XuXaXhXpX0X,XY.b.@.W S S W @.M.Y.@X*X1X*X~.D.z.a.` n ",
". % n X.).kXvXxXrX2X<X-X<X-XV.s.1.1.s.V.@X<X<X<X*X1X*X%XP.d.` n ",
". % b X.`.lXbXxXrX<X<X<X*X*XE.J.M.M.J.E.-X*X<X<X1X1X1X*XY.j.' n ",
". % c X.).sXcXhX8X<X<X<X<X<X@X{./.{.|.%X*X1X1X<X1X1X1X*XY.j.' c ",
". % c ..K.uXgXiX5X<X<X<X<X<X<X<X*X1X1X*X<X<X<X<X<X1X*X*XY.j.] n ",
". % n [ v.,X0X6X2X<X<X<X<X<X<X<X<X<X1X1X<X<X<X<X<X<X1X*XY.d.' n ",
". % b ] d.Y.%X>X<X<X<X<X<X<X<X<X<X<X<X<X<X<X<X<X<X<X1X*XY.j.] c ",
". % n ' d.~.*X<X<X<X<X<X<X<X<X<X<X<X<X<X<X<X<X<X<X<X*X*XY.j.] c ",
"  # p D | w.P.OX*X<X<X<X<X<X<X<X<X<X<X<X<X<X<X<X<X*X@XP.w.| F p ",
"    > d C { q.n./.-X<X<X<X<X<X<X<X<X<X<X<X<X<X*X*X/.F.q.{ V d < ",
"      * u Z { 7.F./.$X<X<X<X<X<X<X<X<X<X<X<X<X-X@Xn.7.( A u &   ",
"          e c ! 7.M./.@X<X<X<X<X<X<X<X<X<X<X@X/.V.5.! c w       ",
"          . 4 n ^ 4.n.E.@X<X<X<X<X<X<X<X<X*X/.n.4.^ n 4 .       ",
"              9 k I =.l.~.*X<X<X<X<X<X<X*X~.l.=.I k 0           ",
"                4 j U @.u.E.{.-X<X<X*XOX~.u.@.U h 8             ",
"                  8 h J ..k.P.@X-X<X@XP.k...J h 8               ",
"                    * d G +.r.F././.F.e.+.G d =                 ",
"                      < s B ) q.B.B.q.) B s ,                   ",
"                        . < m / <.<./ m < .                     ",
"                            r c V Z x y                         ",
"                              4 q q 4                           ",
"                                . .                             ",
"                                                                "
};
