/* XPM */
static char *_a548c5bd91d4551d11458af28126f4aNd7rgOChtSfywHMC[] = {
/* columns rows colors chars-per-pixel */
"33 30 97 2 ",
"   c None",
".  c #745400",
"X  c #785806",
"o  c #8E6800",
"O  c #946C00",
"+  c #877E64",
"@  c #B69100",
"#  c #B69200",
"$  c #B79200",
"%  c #B69300",
"&  c #B79300",
"*  c #B79203",
"=  c #B79400",
"-  c #B79500",
";  c #B79503",
":  c #B89200",
">  c #B99300",
",  c #B89507",
"<  c #B79408",
"1  c #A58021",
"2  c #C08C00",
"3  c #C38F00",
"4  c #C38F04",
"5  c #C79100",
"6  c #CA9400",
"7  c #CD9700",
"8  c #CF9700",
"9  c #C29D00",
"0  c #C49E00",
"q  c #C89C00",
"w  c #C99509",
"e  c #D29A00",
"r  c #D49B00",
"t  c #D59B00",
"y  c #D49C00",
"u  c #D59C00",
"i  c #D69C00",
"p  c #D69D01",
"a  c #DCA000",
"s  c #DCA100",
"d  c #DDA100",
"f  c #DCA200",
"g  c #DDA200",
"h  c #DEA200",
"j  c #DAA207",
"k  c #D6AB00",
"l  c #DFA60D",
"z  c #D7A317",
"x  c #E2A200",
"c  c #E0A500",
"v  c #E2A400",
"b  c #E3A400",
"n  c #E3A500",
"m  c #E2A600",
"M  c #E3A600",
"N  c #E3A601",
"B  c #E3A602",
"V  c #E4A700",
"C  c #E1A705",
"Z  c #E2A705",
"A  c #E3A705",
"S  c #E2A80A",
"D  c #E2A80B",
"F  c #E1A80D",
"G  c #E0A90D",
"H  c #EBBE00",
"J  c #ECBC00",
"K  c #ECBD00",
"L  c #EDBD00",
"P  c #ECBE00",
"I  c #EDBE00",
"U  c #EEBE00",
"Y  c #EFBF00",
"T  c #EDBF04",
"R  c #E2A910",
"E  c #E1AB15",
"W  c #E2AB15",
"Q  c #E1AC19",
"!  c #E0AC1D",
"~  c #E1AC1D",
"^  c #E1AB21",
"/  c #E1AD20",
"(  c #E0AD21",
")  c #E1AD21",
"_  c #EDC00D",
"`  c #EEC10D",
"'  c #B59743",
"]  c #BBA465",
"[  c #BAA567",
"{  c #BCA468",
"}  c #D3AF4E",
"|  c #CCB162",
" . c #CDB163",
".. c #C6B175",
"X. c #C6B275",
"o. c #BDAE83",
"O. c #BAAF93",
/* pixels */
"                                                                  ",
"                                                                  ",
"                                                                  ",
"                                                                  ",
"    , `                                                   ` <     ",
"    $ J                                                   J -     ",
"    : 9                                                   q :     ",
"    $ 0                                                   0 =     ",
"    $                 e x 6 5 8 c 8     c                   :     ",
"    $                   f       V                           =     ",
"    $                   f       c       f                   $     ",
"    $                   f       V       f                   :     ",
"    $           i       f       b       f                   $     ",
"    $           r       f       x       f                   $     ",
"    $           i       f       c       f       i           =     ",
"    $           r       f       V       f       i           $     ",
"    - U         i       f       V       f       i         k -     ",
"    : `         j       A       V       Z {     G X       J -     ",
"    , U       X G     ] Z       V       Z [     G '       U -     ",
"    , `       O S      .Z     ..c X.  o.A  .+ O.G }       J -     ",
"    : J 3 2 w F V ( ( W V ! ^ Q V Q ( ! c W ^ ( V R z 4 3 U -     ",
"    : _ V V V b c V V V c V V V V V V x V V V x x V V c V J -     ",
"    : J V c V b V V V c V V c c c V V V c V V V V c c V V U -     ",
"    - _ O o o o o o o o o o o O o o o o o o o o o o o O O J -     ",
"    - J                                                   J -     ",
"    : T                                                   T ,     ",
"                                                                  ",
"                                                                  ",
"                                                                  ",
"                                                                  "
};
