/* XPM */
static char *_837e30204594f2397b1de8729ccab33iKVDiAZCwwqobOnD[] = {
/* columns rows colors chars-per-pixel */
"32 32 195 2 ",
"   c None",
".  c #130C0F",
"X  c #0A0D14",
"o  c #120F14",
"O  c #111014",
"+  c #13161C",
"@  c #161A1F",
"#  c #2E0F0B",
"$  c #200F0D",
"%  c #2F140D",
"&  c #33120C",
"*  c #3C150D",
"=  c #39190F",
"-  c #25161C",
";  c #2B1B1E",
":  c #341C17",
">  c #361D1D",
",  c #151C23",
"<  c #1A1E25",
"1  c #1A1D2A",
"2  c #131A29",
"3  c #291E23",
"4  c #241C23",
"5  c #1B212C",
"6  c #1B2426",
"7  c #1B2332",
"8  c #1C2931",
"9  c #2B2424",
"0  c #23222B",
"q  c #3B2925",
"w  c #3A322D",
"e  c #212936",
"r  c #242D3A",
"t  c #262A36",
"y  c #2A323E",
"u  c #27373A",
"i  c #44120B",
"p  c #431B13",
"a  c #4B1D14",
"s  c #651D0F",
"d  c #53200F",
"f  c #4D2319",
"g  c #482016",
"h  c #522114",
"j  c #50261C",
"k  c #5A2617",
"l  c #6C2313",
"z  c #6D2913",
"x  c #652919",
"c  c #742B18",
"v  c #71321D",
"b  c #7A3A1D",
"n  c #78371C",
"m  c #65341B",
"M  c #442A22",
"N  c #542C22",
"B  c #5A3323",
"V  c #733621",
"C  c #763A24",
"Z  c #7B3D24",
"A  c #774126",
"S  c #2C3441",
"D  c #323A44",
"F  c #363D4A",
"G  c #303642",
"H  c #26414A",
"J  c #3B414C",
"K  c #35464D",
"L  c #3E4552",
"P  c #38565B",
"I  c #454C4F",
"U  c #444955",
"Y  c #475658",
"T  c #58615B",
"R  c #4F5560",
"E  c #555A62",
"W  c #595F69",
"Q  c #4A6266",
"!  c #556464",
"~  c #576769",
"^  c #5D7676",
"/  c #606B68",
"(  c #696F72",
")  c #6B7775",
"_  c #71757C",
"`  c #737C7A",
"'  c #863D1C",
"]  c #8C3D1B",
"[  c #85361A",
"{  c #903D1A",
"}  c #843D22",
"|  c #883821",
" . c #89411D",
".. c #96471F",
"X. c #98411E",
"o. c #A94719",
"O. c #B24D1E",
"+. c #8B4325",
"@. c #854629",
"#. c #9D4422",
"$. c #984825",
"%. c #AB4E21",
"&. c #A44421",
"*. c #B55121",
"=. c #B95122",
"-. c #677E80",
";. c #747782",
":. c #538C8E",
">. c #6B8986",
",. c #678786",
"<. c #7C8189",
"1. c #728A86",
"2. c #75938F",
"3. c #6F9293",
"4. c #769B94",
"5. c #789A99",
"6. c #7DA09D",
"7. c #6BA7AC",
"8. c #70A6AA",
"9. c #7BACB1",
"0. c #8C9384",
"q. c #898C92",
"w. c #8E9292",
"e. c #8F9D97",
"r. c #848B85",
"t. c #83A39E",
"y. c #99A597",
"u. c #8AA6A2",
"i. c #8BABA9",
"p. c #83A8A6",
"a. c #96A6A4",
"s. c #9AABA7",
"d. c #8AB0AB",
"f. c #83B5B4",
"g. c #8DB9B4",
"h. c #8AB9BA",
"j. c #94BEBA",
"k. c #9BBBB8",
"l. c #A7B5AD",
"z. c #A6BEB9",
"x. c #ACBAB5",
"c. c #B0B1B0",
"v. c #94C1BC",
"b. c #9EC3BD",
"n. c #AAC3BB",
"m. c #BBC7BE",
"M. c #C2C5BC",
"N. c #98BEC0",
"B. c #98C2C0",
"V. c #AECBC6",
"C. c #A6C9C2",
"Z. c #B3CCC6",
"A. c #B5CAC5",
"S. c #B3D3CB",
"D. c #BAD5CB",
"F. c #BEDBD1",
"G. c #C4CCC3",
"H. c #CFCDCB",
"J. c #CDD3C3",
"K. c #C9D3CA",
"L. c #C7D5C8",
"P. c #DADECC",
"I. c #D1DACA",
"U. c #C5DBD2",
"Y. c #CCDCD3",
"T. c #CCDDDA",
"R. c #C2D7D7",
"E. c #D6DDD7",
"W. c #CDE1D6",
"Q. c #DEE0D7",
"!. c #DAE5D9",
"~. c #DCE9DC",
"^. c #D3E5DF",
"/. c #E1E6DC",
"(. c #E3ECDC",
"). c #E8EBDC",
"_. c #E2E7D7",
"`. c #F0EDDC",
"'. c #EDF3DF",
"]. c #DCE6E5",
"[. c #EBEDE2",
"{. c #E4EFEA",
"}. c #EDF2E3",
"|. c #EBF4EA",
" X c #F3F4E4",
".X c #F4F5EA",
"XX c #F8F6EB",
"oX c #F6F9EA",
"OX c #FCFAEC",
"+X c #EBEFF1",
"@X c #EEF8F8",
"#X c #F2F6F1",
"$X c #FDFDF3",
"%X c #FFFEFB",
"&X c #F7F8F0",
/* pixels */
"                          7 7 7 7 7 7                           ",
"                        e 7 ~ E.Z.>.7 7                         ",
"                    ~ 7 7 E XX|.B.h.Q 7                         ",
"                U 7 7 t U /.%X].B.h.3.7 <.                      ",
"            y 7 e y _ c.%X$XoXF.j.j.t.7 7 7 S                   ",
"          7 7 G ` M.$X%XOXOX(.S.F.^.i.Q ~ D 7 7                 ",
"        F e w..XoXOXoXOXOXXX}.oX[.z.5.k.#XS.P 7                 ",
"        e y %XOXOXOX X~.(.).(.Y.z.p.j.{.#X9.:.r 7               ",
"        7 J OX XOXOXOX(.D.S.C.v.v.n.].%XC.7.7.F 7 S             ",
"      7 7 E  X`. XOX$X$X XW.F.S.U.[.%XT.9.7.7.N.y 7 D           ",
"    7 r q..XOX X'.$X$XOXOXOXOXOX$X$XT.f.9.9.F.+XT.r 7 U         ",
"    7 _ %X$X%X$XoX$X$XOXOXOXOXOX[.D.h.f.f.S.+X[.R.a.t 7         ",
"    7 H.$X$X$X$XOX$XOX$XoXoX!.D.C.g.g.C.D.Z.T.A.p.p.Y 7         ",
"    7 /.XXXXoX$X%X$XOXoX'.(.W.Z.N.k.U.&X%XY.i.8.2.4.^ 7         ",
"    7 w.OX).[.$X%X%XOXoXoX%XOX'.K.!.&XXXXX/.t.3.>.4.! 7         ",
"    7 G M.P.[.%XOXOXOX$XOX$X$X).P.).[./.Q.J.t.,.,.2.G 7         ",
"    J 7 r I Q.$XoXoXoX XXXXXOX_.K.E.K.G.m.x.5.:.! K 7 r         ",
"      <.8 7 ( OX'.'.(.I.}. X'.~.l.n.m.x.l.y._ K 7 5 r           ",
"          7 e r.J.I.y.) ~.).I.J.~ J s.s.t.1.u 2 7 R             ",
"          ~ e w y K 8 6 ) y.0.T 6 X u ! Y 6 O 1 D               ",
"          _ 7 B A M 9 9 0 @ , , @ + O O . $ p 0 D               ",
"            7 q *.=.b A } B g m k : d d = = * 0 F               ",
"            7 t ..*.@.$.%.A B ..b g z x % = : 7 E               ",
"            L 5  .*.} +.#.C N } n g z d % * ; 5                 ",
"              7 C =.[ +.&.C N ] v a z d # i 3 7                 ",
"              7 B O.[ +.#.n N ' z a l a # i 4 e                 ",
"              7 M %.] +.#.V N | x a l a % i 1                   ",
"              7 4 o.{ Z #.v f | k a l i & i 5                   ",
"              L 7 M ] n | v j n f a s * & - 7                   ",
"                7 7 0 q V c j l p p a 4 1 7                     ",
"                  U 7 7 7 3 3 > 4 5 1 7 7 L                     ",
"                      ;.F e 7 7 7 7 F (                         "
};
