/* XPM */
static char *_7141431742346e295d812d37b1c9afa1HpK8j2dneCn0gMp[] = {
/* columns rows colors chars-per-pixel */
"32 32 6 1 ",
"  c NONE",
". c #181818",
"X c #885038",
"o c #D08860",
"O c #F8D098",
"+ c #F8F0E0",
/* pixels */
"                                ",
"                                ",
"              XXooXX            ",
"             oOOOOOoX           ",
"            oOOOOOOOoX          ",
"            oOOOOOOOoX          ",
"            XOOOOOOOoX          ",
"           oXOOOOOOOoXX         ",
"           OXoOOOOOooXo         ",
"           OXoXXooXXoXo         ",
"           o.X+.oo.+X.X         ",
"            .X+.OO.+X.          ",
"             .oOOOoo.           ",
"            XX.oOOo.XX          ",
"           XoooXXXXoooX         ",
"           XoooOOOOoooX         ",
"          XoOoXOOOOXoOoX        ",
"          XOOo.OOOO.oOOX        ",
"          XOOX.oOOo.XOOX        ",
"          XooX.oOOo.XooX        ",
"          .OOXXXooXXXOO.        ",
"          .OoXXXXXXXXoO.        ",
"          .oX.XooXXX.Xo.        ",
"           ...XooXoX...         ",
"             XoOoXoo.           ",
"             XOOoXoo.           ",
"            XoOOoXoo.           ",
"            XooooXoOo.          ",
"           XoOOooXOOOo.         ",
"          .oOOOX.......         ",
"          .......               ",
"                                "
};
