/* XPM */
static char *_9e5c675622c4de68f7138d8e78e6e0csGyU1kJcE8pnmL6Y[] = {
/* columns rows colors chars-per-pixel */
"32 32 10 1 ",
"  c None",
". c #181425",
"X c #3E2731",
"o c #733E39",
"O c #262B44",
"+ c #3A4466",
"@ c #C28569",
"# c #E8B796",
"$ c #FFDCC5",
"% c white",
/* pixels */
"          ......                ",
"          ......                ",
"      ....##$$$$..              ",
"      ....##$$$$..              ",
"  ....%%####$$$$$$..            ",
"  ....%%####$$$$$$..            ",
"..%%%%%%######$$$$$$..          ",
"..%%%%%%######$$$$$$..          ",
"..%%%%%%%%%%####%%%%..          ",
"..%%%%%%%%%%####%%%%..          ",
"  ..%%%%##..####..%%..          ",
"  ..%%%%##..####..%%..          ",
"    ..####..####..%%..          ",
"    ..####..####..%%..          ",
"  ....####%%%%%%%%..            ",
"  ....####%%%%%%%%..            ",
"..++OO++##%%####%%++..          ",
"..++OO++##%%####%%++..          ",
"..++OO++++++OO++++++..          ",
"..++OO++++++OO++++++..          ",
"..++##@@++++OO++++++..          ",
"..++##@@++++OO++++++..          ",
"  ..##@@ooooXXooXXXX..          ",
"  ..##@@ooooXXooXXXX..          ",
"    ..OOOO......OO..            ",
"    ..OOOO......OO..            ",
"      ..OO..  ..OO..            ",
"      ..OO..  ..OO..            ",
"      ..OO..  ..OO..            ",
"      ..OO..  ..OO..            ",
"                                ",
"                                "
};
